<svg xmlns="http://www.w3.org/2000/svg" version="1.1" xmlns:xlink="http://www.w3.org/1999/xlink" width="179.86" height="49.4"><svg xmlns="http://www.w3.org/2000/svg" version="1.1" xmlns:xlink="http://www.w3.org/1999/xlink" width="179.86" height="49.4"><svg xmlns="http://www.w3.org/2000/svg" preserveAspectRatio="xMidYMid meet" viewBox="60.1 75.3 179.86 49.4">   <g transform="translate(50, 0)">     <path fill="#F57502" d="m189,106c-3.9,-2.1 -7.7,-4.4 -11.5,-6.7l0,-3.7c0,-2.3 -0.8,-4.7 -2.4,-7c-0.1,-0.2 -1.5,-0.2 -1.6,0c-1.5,2.3 -2.3,4.5 -2.3,6.8c0,0 -0.1,-0.1 -0.1,-0.1c-6,-3.7 -12,-7.3 -18.3,-10.6c-6.3,-3.3 -12.8,-6.3 -20.1,-8.2c-0.9,-0.2 -1.8,-0.4 -2.8,-0.6l-1.4,-0.3c-0.5,-0.1 -1,-0.1 -1.4,-0.1c-1,-0.1 -1.9,-0.2 -2.9,-0.2l-2.9,0.2c-1,0 -1.9,0.2 -2.8,0.4c-0.9,0.2 -1.9,0.3 -2.8,0.5c-1.8,0.5 -3.6,0.9 -5.3,1.5c-8.5,2.9 -16.2,6.9 -23.8,10.9c-7.6,4.1 -15,8.5 -22.5,12.4c-3.5,1.9 -5.8,4.4 -5.2,6.1c0.7,1.6 4.4,1.5 8.1,-0.4c0.9,-0.5 1.9,-1 2.8,-1.5l0,4c0,3 0.4,6 1.3,8.9l-3.1,0c-19,0 -38.1,0.8 -57,2.4c-1.2,0.1 -1.2,1.5 0,1.6c18.9,1.6 38,2.4 57,2.4l34.8,0c2.8,0 5,-1.4 5,-3.2c0,-1.8 -2.2,-3.2 -5,-3.2l-28,0c0.9,-3 1.3,-6 1.3,-8.9l0,-7.3c0,-0.1 0,-0.1 -0.1,-0.2c4.5,-2.5 9,-5 13.5,-7.5c7.5,-4 15,-7.9 22.8,-10.5c1.6,-0.6 3.2,-1 4.8,-1.4c0.8,-0.2 1.6,-0.3 2.4,-0.5c0.8,-0.1 1.6,-0.4 2.4,-0.4l2.3,-0.2c0.8,0 1.6,0.1 2.3,0.1c0.4,0 0.8,0 1.2,0.1l1.2,0.2c0.8,0.1 1.6,0.2 2.4,0.4c6.4,1.5 12.9,4.1 19.1,6.9c6.3,2.9 12.5,6.1 18.8,9.2c0.6,0.3 1.3,0.6 1.9,1l0,0.4c0,0.2 0.8,0.5 1.9,0.6c5,2.5 10,5 15.3,7.1c1.8,0.7 2.3,-0.6 0.7,-1.4z"></path>   </g> </svg></svg><style>@media (prefers-color-scheme: light) { :root { filter: none; } }
@media (prefers-color-scheme: dark) { :root { filter: none; } }
</style></svg>