<svg width="3171.4285714285716" height="1163.0826164806435" xmlns="http://www.w3.org/2000/svg" xmlns:svg="http://www.w3.org/2000/svg" version="1.1">
 <g class="layer">
  <title>Layer 1</title>
  <g id="svg_1" transform="scale(8.57143 8.57143) matrix(1 0 0 1 10 10)">

   <g class="logo_icon" fill="#F57502" id="SvgjsG5619" transform="matrix(1.1521852652182258,0,0,1.1521852652182258,60.36292838177212,-86.75957156807472)">
    <path d="m189,106c-3.9,-2.1 -7.7,-4.4 -11.5,-6.7l0,-3.7c0,-2.3 -0.8,-4.7 -2.4,-7c-0.1,-0.2 -1.5,-0.2 -1.6,0c-1.5,2.3 -2.3,4.5 -2.3,6.8c0,0 -0.1,-0.1 -0.1,-0.1c-6,-3.7 -12,-7.3 -18.3,-10.6c-6.3,-3.3 -12.8,-6.3 -20.1,-8.2c-0.9,-0.2 -1.8,-0.4 -2.8,-0.6l-1.4,-0.3c-0.5,-0.1 -1,-0.1 -1.4,-0.1c-1,-0.1 -1.9,-0.2 -2.9,-0.2l-2.9,0.2c-1,0 -1.9,0.2 -2.8,0.4c-0.9,0.2 -1.9,0.3 -2.8,0.5c-1.8,0.5 -3.6,0.9 -5.3,1.5c-8.5,2.9 -16.2,6.9 -23.8,10.9c-7.6,4.1 -15,8.5 -22.5,12.4c-3.5,1.9 -5.8,4.4 -5.2,6.1c0.7,1.6 4.4,1.5 8.1,-0.4c0.9,-0.5 1.9,-1 2.8,-1.5l0,4c0,3 0.4,6 1.3,8.9l-3.1,0c-19,0 -38.1,0.8 -57,2.4c-1.2,0.1 -1.2,1.5 0,1.6c18.9,1.6 38,2.4 57,2.4l34.8,0c2.8,0 5,-1.4 5,-3.2c0,-1.8 -2.2,-3.2 -5,-3.2l-28,0c0.9,-3 1.3,-6 1.3,-8.9l0,-7.3c0,-0.1 0,-0.1 -0.1,-0.2c4.5,-2.5 9,-5 13.5,-7.5c7.5,-4 15,-7.9 22.8,-10.5c1.6,-0.6 3.2,-1 4.8,-1.4c0.8,-0.2 1.6,-0.3 2.4,-0.5c0.8,-0.1 1.6,-0.4 2.4,-0.4l2.3,-0.2c0.8,0 1.6,0.1 2.3,0.1c0.4,0 0.8,0 1.2,0.1l1.2,0.2c0.8,0.1 1.6,0.2 2.4,0.4c6.4,1.5 12.9,4.1 19.1,6.9c6.3,2.9 12.5,6.1 18.8,9.2c0.6,0.3 1.3,0.6 1.9,1l0,0.4c0,0.2 0.8,0.5 1.9,0.6c5,2.5 10,5 15.3,7.1c1.8,0.7 2.3,-0.6 0.7,-1.4z" id="svg_2" xmlns="http://www.w3.org/2000/svg"/>
   </g>
   <g class="logo_titulo" fill="#053463" id="SvgjsG5620" transform="matrix(2.44892 0 0 2.44892 -2.00812 66.0288)">
    <path d="m4.74,19.26q-1.8,-1.02 -2.86,-2.77t-1.06,-3.81q0,-2.04 1.06,-3.79t2.86,-2.77t3.94,-1.02t3.96,1.02t2.88,2.77t1.06,3.79q0,2.06 -1.06,3.81t-2.88,2.77t-3.96,1.02t-3.94,-1.02zm1.58,-10.63q-1.08,0.65 -1.72,1.73t-0.64,2.32t0.64,2.33t1.72,1.75t2.36,0.66t2.37,-0.66t1.72,-1.75t0.63,-2.33t-0.63,-2.32t-1.72,-1.73t-2.37,-0.65t-2.36,0.65zm34.16,11.37l-3.18,0l0,-6.98l-4.48,5.2l-4.48,-5.2l0,6.98l-3.18,0l0,-15.08l7.66,8.64l7.66,-8.64l0,15.08zm5.99,-0.26q-1.37,-0.54 -2.35,-1.83t-0.98,-3.37t0.99,-3.36t2.37,-1.82t2.62,-0.54q1.44,0 2.74,0.64t2.13,1.88t0.87,2.94q0,0.52 -0.02,0.9t-0.04,0.48l-8.68,0q0.24,1.16 1.2,1.58t1.8,0.42q1.08,0 1.72,-0.39t1.1,-0.89l2.32,1.34q-1.88,2.56 -5.14,2.56q-1.28,0 -2.65,-0.54zm0.61,-7.69q-0.78,0.61 -0.88,1.49l5.5,0q-0.06,-0.52 -0.4,-1t-0.91,-0.79t-1.29,-0.31q-1.24,0 -2.02,0.61zm10.18,3.49l0,-6.5l3.02,0l0,6.5q0,1.18 0.59,1.69t1.55,0.51q0.84,0 1.5,-0.65t0.6,-2.23l0,-5.82l3,0l0,10.96l-3,0l0,-0.94q-0.54,0.56 -1.31,0.87t-1.63,0.31q-4.32,0 -4.32,-4.7zm28.43,-9.46q1.33,0.7 2.05,1.89t0.72,2.65t-0.67,2.62t-2.01,1.83t-3.24,0.67l-2.76,0l0,4.26l-3.16,0l0,-14.62l5.94,0q1.8,0 3.13,0.7zm-0.99,6.22q0.58,-0.7 0.58,-1.68q0,-0.64 -0.3,-1.21t-0.89,-0.93t-1.41,-0.36l-2.9,0l0,4.88l3.22,0q1.12,0 1.7,-0.7zm10.7,-0.43q-0.86,0.21 -1.58,0.99t-0.72,2.28l0,4.86l-2.98,0l0,-11l2.98,0l0,1.46q0.74,-0.98 1.81,-1.33t1.95,-0.33l0,2.92q-0.6,-0.06 -1.46,0.15zm5.73,7.87q-1.37,-0.54 -2.35,-1.83t-0.98,-3.37t0.99,-3.36t2.37,-1.82t2.62,-0.54q1.44,0 2.74,0.64t2.13,1.88t0.87,2.94q0,0.52 -0.02,0.9t-0.04,0.48l-8.68,0q0.24,1.16 1.2,1.58t1.8,0.42q1.08,0 1.72,-0.39t1.1,-0.89l2.32,1.34q-1.88,2.56 -5.14,2.56q-1.28,0 -2.65,-0.54zm0.61,-7.69q-0.78,0.61 -0.88,1.49l5.5,0q-0.06,-0.52 -0.4,-1t-0.91,-0.79t-1.29,-0.31q-1.24,0 -2.02,0.61zm5.78,-6.45l-2.98,2.16l-2.38,0l2.64,-3.28l2.72,1.12zm12.76,13.3q-0.38,0.52 -1.31,0.93t-2.03,0.41q-1.7,0 -2.95,-0.76t-1.91,-2.07t-0.66,-2.91t0.66,-2.91t1.91,-2.07t2.95,-0.76q1.14,0 2.01,0.39t1.33,0.99l0,-5.26l2.96,0l0,15.12l-2.96,0l0,-1.1zm-0.7,-6.65q-0.82,-0.87 -2.2,-0.87q-1.4,0 -2.21,0.87t-0.81,2.25q0,1.34 0.83,2.22t2.19,0.88q1.4,0 2.21,-0.83t0.81,-2.27q0,-1.38 -0.82,-2.25zm9.42,-4.88q-0.48,0.47 -1.16,0.47q-0.7,0 -1.19,-0.47t-0.49,-1.15q0,-0.66 0.49,-1.13t1.19,-0.47q0.68,0 1.16,0.47t0.48,1.13q0,0.68 -0.48,1.15zm-2.66,1.65l3,0l0,10.98l-3,0l0,-10.98zm8.41,10.47q-1.37,-0.77 -2.17,-2.09t-0.8,-2.88q0,-1.54 0.8,-2.86t2.17,-2.09t2.99,-0.77t3,0.77t2.19,2.09t0.81,2.86q0,1.56 -0.81,2.88t-2.19,2.09t-3,0.77t-2.99,-0.77zm1.47,-7.66q-0.7,0.41 -1.1,1.12t-0.4,1.57q0,0.9 0.39,1.61t1.08,1.12t1.55,0.41q0.84,0 1.53,-0.41t1.09,-1.13t0.4,-1.6q0,-0.86 -0.4,-1.57t-1.09,-1.12t-1.53,-0.41q-0.82,0 -1.52,0.41z" id="svg_3"/>
   </g>
  </g>
 </g>
</svg>